<svg id="Camada_1" data-name="Camada 1" xmlns="http://www.w3.org/2000/svg" viewBox="0 0 47.99 47.99"><defs><style>.cls-1{fill:#fa641e;}.cls-2{fill:#fff;}</style></defs><title>car</title><path class="cls-1" d="M25,1A24,24,0,1,1,1,25,24,24,0,0,1,25,1Z" transform="translate(-1.01 -1.01)"/><path class="cls-2" d="M35.89,17.86l-2.06-.09-9.63-.42c-.89,0-1.79-.09-2.69-.11a.75.75,0,1,0-.11,1.49,5.65,5.65,0,0,0,.59,0l9.59.4,3.33.16c0,.11,0,.18,0,.26-.82,2.57-1.65,5.14-2.47,7.72-.08.28-.23.33-.49.33-3.68,0-7.37,0-11,0-.34,0-.44-.11-.49-.41q-1-5.52-2-11a1,1,0,0,0-.65-.84c-1.08-.41-2.15-.84-3.23-1.26-.53-.2-.93-.06-1.1.38s.05.81.57,1c.89.35,1.78.71,2.68,1A.47.47,0,0,1,17,17Q18,22.49,19,28a1.57,1.57,0,0,0,.28.85c.24.27.57.22.9.26-.26.73-.52,1.43-.76,2.13s0,.95.65,1c.13,0,.27-.07.38.07a2.3,2.3,0,0,0,.15,3,2.26,2.26,0,0,0,3.82-1.19,2.51,2.51,0,0,0-.48-1.86h4.78c-.74,1.31-.65,2.37.27,3.16a2.21,2.21,0,0,0,2.85.08c1-.77,1.11-1.82.36-3.27h.27c.7,0,1-.18,1-.61s-.27-.63-1-.63H21.25c-.32,0-.45,0-.29-.39a5.51,5.51,0,0,0,.37-1,.56.56,0,0,1,.66-.48c3.53,0,7.07,0,10.6,0a.88.88,0,0,0,1-.62l3.06-9.58A.75.75,0,0,0,35.89,17.86Zm-5.43,14.9a1,1,0,0,1,1,1,1,1,0,1,1-1-1Zm-8.26,0a1,1,0,0,1,1,1,1,1,0,0,1-1,1,1,1,0,0,1-1-1A1,1,0,0,1,22.2,32.76Z" transform="translate(-1.01 -1.01)"/></svg>