<svg id="Camada_1" data-name="Camada 1" xmlns="http://www.w3.org/2000/svg" viewBox="0 0 49.3 45.41"><defs><style>.cls-1{fill:#fe8f1c;}.cls-2{fill:#0067a1;}</style></defs><title>favicon</title><polygon class="cls-1" points="25.22 3.99 24.78 4.42 24.56 4.64 23.8 3.78 22.81 2.7 21.5 1.29 19.53 0.32 17.89 0 15.59 0.32 13.84 0.97 12.74 2.05 11.76 3.78 11.54 4.86 11.54 6.15 11.98 7.88 14.38 11.33 16.25 13.27 18.87 15.64 20.73 17.48 22.38 18.88 23.91 20.18 25 21.15 25.88 20.39 27.96 18.56 29.93 16.83 31.57 15.11 33.32 13.38 34.85 11.65 36.27 9.71 37.26 8.2 37.81 6.47 37.81 5.18 37.81 3.99 36.93 2.48 36.06 1.62 34.85 0.65 33.76 0 32.88 0 31.57 0 30.47 0 29.27 0.43 27.96 1.29 26.97 2.16 25.99 3.13 25.22 3.99"/><polygon class="cls-2" points="24.29 41.46 24.72 41.03 24.94 40.82 25.71 41.67 26.69 42.73 28.01 44.12 29.98 45.08 31.62 45.4 33.92 45.08 35.67 44.44 36.77 43.37 37.75 41.66 37.97 40.59 37.97 39.31 37.53 37.61 35.12 34.2 33.25 32.28 30.63 29.93 28.76 28.12 27.12 26.74 25.59 25.46 24.49 24.5 23.62 25.25 21.54 27.06 19.57 28.77 17.93 30.48 16.18 32.18 14.65 33.89 13.23 35.81 12.24 37.3 11.7 39.01 11.7 40.29 11.7 41.47 12.57 42.96 13.45 43.81 14.66 44.77 15.75 45.41 16.63 45.41 17.94 45.41 19.03 45.41 20.24 44.98 21.55 44.12 22.54 43.27 23.52 42.31 24.29 41.46"/><polygon class="cls-2" points="45.08 22.58 44.63 22.16 44.41 21.95 45.27 21.19 46.34 20.21 47.74 18.9 48.68 16.96 48.98 15.36 48.6 13.13 47.91 11.43 46.79 10.39 45.02 9.46 43.92 9.27 42.61 9.3 40.87 9.76 37.41 12.17 35.48 14.03 33.13 16.63 31.31 18.48 29.92 20.11 28.63 21.63 27.67 22.71 28.46 23.55 30.36 25.54 32.15 27.43 33.93 28.99 35.72 30.66 37.5 32.12 39.5 33.47 41.05 34.4 42.82 34.89 44.13 34.87 45.33 34.84 46.85 33.96 47.7 33.09 48.66 31.9 49.3 30.82 49.28 29.97 49.25 28.68 49.23 27.62 48.77 26.46 47.87 25.19 46.97 24.25 45.97 23.31 45.08 22.58"/><polygon class="cls-1" points="4.13 22.56 4.57 22.98 4.79 23.19 3.92 23.95 2.83 24.92 1.42 26.21 0.45 28.14 0.14 29.74 0.49 31.98 1.16 33.68 2.27 34.73 4.03 35.68 5.12 35.88 6.43 35.87 8.18 35.43 11.66 33.05 13.62 31.22 16 28.64 17.85 26.81 19.25 25.2 20.55 23.7 21.53 22.62 20.75 21.78 18.88 19.77 17.11 17.86 15.34 16.28 13.58 14.59 11.81 13.11 9.83 11.74 8.29 10.79 6.53 10.28 5.22 10.29 4.01 10.3 2.49 11.16 1.62 12.02 0.65 13.2 0 14.28 0.01 15.13 0.02 16.41 0.03 17.48 0.48 18.64 1.36 19.92 2.25 20.87 3.24 21.82 4.13 22.56"/></svg>