<svg id="Camada_1" data-name="Camada 1" xmlns="http://www.w3.org/2000/svg" viewBox="0 0 46.38 42.72"><defs><style>.cls-1{fill:#fff;}</style></defs><title>favicon</title><polygon class="cls-1" points="23.72 3.76 23.32 4.16 23.11 4.36 22.39 3.56 21.47 2.54 20.23 1.22 18.38 0.3 16.82 0 14.67 0.3 13.02 0.91 11.99 1.93 11.06 3.56 10.86 4.57 10.86 5.79 11.26 7.42 13.53 10.66 15.29 12.49 17.76 14.72 19.5 16.45 21.05 17.76 22.49 18.98 23.52 19.89 24.34 19.18 26.3 17.46 28.15 15.84 29.7 14.21 31.34 12.59 32.79 10.96 34.13 9.13 35.05 7.72 35.57 6.09 35.57 4.87 35.57 3.76 34.75 2.33 33.93 1.53 32.79 0.6 31.76 0 30.94 0 29.7 0 28.67 0 27.53 0.4 26.3 1.22 25.38 2.03 24.44 2.94 23.72 3.76"/><polygon class="cls-1" points="22.84 39 23.26 38.59 23.47 38.41 24.19 39.2 25.11 40.21 26.35 41.51 28.2 42.42 29.75 42.71 31.91 42.4 33.56 41.81 34.58 40.8 35.52 39.2 35.72 38.19 35.72 36.99 35.3 35.38 33.03 32.17 31.29 30.37 28.81 28.16 27.07 26.46 25.52 25.15 24.08 23.95 23.04 23.06 22.22 23.75 20.27 25.46 18.41 27.07 16.86 28.67 15.22 30.28 13.79 31.89 12.45 33.69 11.52 35.1 11.01 36.7 11.01 37.9 11.01 39.01 11.83 40.41 12.65 41.22 13.79 42.11 14.82 42.72 15.64 42.72 16.88 42.72 17.91 42.72 19.05 42.32 20.28 41.51 21.2 40.71 22.12 39.81 22.84 39"/><polygon class="cls-1" points="42.4 21.24 41.99 20.85 41.77 20.66 42.58 19.94 43.6 19.02 44.91 17.78 45.8 15.96 46.07 14.45 45.72 12.35 45.08 10.76 44.02 9.78 42.35 8.9 41.32 8.73 40.08 8.75 38.44 9.18 35.2 11.45 33.39 13.19 31.17 15.65 29.45 17.39 28.14 18.92 26.94 20.34 26.03 21.37 26.78 22.16 28.55 24.03 30.25 25.81 31.92 27.28 33.61 28.84 35.28 30.22 37.16 31.48 38.62 32.36 40.28 32.83 41.52 32.81 42.64 32.78 44.07 31.95 44.88 31.13 45.78 30.01 46.38 29 46.36 28.19 46.34 26.99 46.31 25.98 45.88 24.89 45.04 23.7 44.2 22.82 43.25 21.93 42.4 21.24"/><polygon class="cls-1" points="3.88 21.23 4.3 21.62 4.5 21.82 3.68 22.53 2.66 23.45 1.34 24.66 0.43 26.47 0.13 27.98 0.47 30.08 1.1 31.68 2.13 32.68 3.78 33.56 4.82 33.75 6.05 33.75 7.69 33.34 10.97 31.09 12.81 29.38 15.06 26.94 16.79 25.23 18.11 23.71 19.34 22.3 20.26 21.29 19.52 20.48 17.76 18.59 16.09 16.8 14.43 15.31 12.78 13.72 11.11 12.34 9.24 11.05 7.79 10.15 6.14 9.66 4.91 9.67 3.77 9.69 2.35 10.51 1.53 11.31 0.6 12.42 0 13.43 0.01 14.23 0.01 15.44 0.03 16.45 0.45 17.54 1.29 18.74 2.12 19.64 3.05 20.53 3.88 21.23"/></svg>