<svg id="Camada_1" data-name="Camada 1" xmlns="http://www.w3.org/2000/svg" viewBox="0 0 1214.75 338.71"><defs><style>.cls-1{fill:#fe8f1c;}.cls-2{fill:#0067a1;}.cls-3{fill:#fd8e1c;}</style></defs><title>logo</title><polygon class="cls-1" points="188.13 29.78 184.86 33 183.23 34.61 177.51 28.17 170.16 20.12 160.37 9.66 145.67 2.41 133.43 0 116.28 2.41 103.22 7.24 95.06 15.29 87.71 28.17 86.08 36.22 86.08 45.87 89.34 58.75 107.3 84.5 121.18 98.99 140.77 116.7 154.65 130.38 166.9 140.84 178.33 150.5 186.49 157.74 193.02 152.11 208.53 138.43 223.23 125.55 235.47 112.67 248.54 99.8 259.97 86.92 270.58 72.43 277.93 61.16 282.01 48.29 282.01 38.63 282.01 29.78 275.48 18.51 268.95 12.07 259.97 4.83 251.8 0 245.27 0 235.47 0 227.31 0 218.33 3.22 208.53 9.66 201.19 16.1 193.84 23.34 188.13 29.78"/><polygon class="cls-2" points="181.15 309.23 184.41 306.05 186.05 304.46 191.77 310.82 199.12 318.77 208.93 329.1 223.63 336.25 235.88 338.63 253.02 336.23 266.08 331.45 274.24 323.49 281.58 310.76 283.2 302.8 283.2 293.25 279.92 280.53 261.94 255.09 248.05 240.78 228.44 223.29 214.56 209.78 202.3 199.44 190.86 189.91 182.69 182.75 176.17 188.32 160.66 201.86 145.97 214.6 133.74 227.33 120.68 240.07 109.26 252.81 98.66 267.13 91.32 278.27 87.25 291 87.25 300.55 87.26 309.3 93.8 320.43 100.33 326.79 109.32 333.94 117.49 338.71 124.02 338.71 133.82 338.7 141.98 338.69 150.96 335.51 160.75 329.13 168.1 322.77 175.44 315.6 181.15 309.23"/><polygon class="cls-2" points="336.24 168.45 332.9 165.33 331.24 163.77 337.65 158.07 345.66 150.75 356.08 141 363.12 126.54 365.32 114.56 362.52 97.91 357.36 85.28 349.03 77.49 335.82 70.59 327.62 69.16 317.83 69.36 304.83 72.8 279.08 90.81 264.67 104.63 247.11 124.07 233.52 137.87 223.15 150.01 213.59 161.34 206.41 169.44 212.26 175.68 226.45 190.52 239.81 204.57 253.12 216.25 266.45 228.71 279.74 239.59 294.65 249.63 306.23 256.56 319.38 260.28 329.17 260.08 338.15 259.91 349.44 253.32 355.84 246.82 363 237.93 367.74 229.88 367.6 223.52 367.4 213.97 367.24 206.02 363.79 197.34 357.06 187.92 350.38 180.9 342.88 173.88 336.24 168.45"/><polygon class="cls-1" points="30.77 168.27 34.06 171.43 35.71 173 29.23 178.63 21.13 185.86 10.61 195.5 3.39 209.88 1.05 221.83 3.65 238.51 8.66 251.2 16.9 259.08 30.02 266.13 38.2 267.65 48 267.56 61.03 264.27 87 246.54 101.58 232.9 119.36 213.65 133.12 200.01 143.63 187.99 153.32 176.76 160.6 168.75 154.82 162.43 140.81 147.44 127.62 133.23 114.44 121.42 101.27 108.8 88.1 97.78 73.31 87.56 61.82 80.5 48.72 76.64 38.92 76.72 29.94 76.8 18.57 83.26 12.1 89.68 4.83 98.49 0 106.49 0.06 112.85 0.14 122.4 0.22 130.35 3.56 139.07 10.18 148.56 16.78 155.67 24.19 162.76 30.77 168.27"/><path class="cls-3" d="M1046.5,292.57V167h72.67v10.3H1058v47.28h55.5v10.3H1058v57.71ZM1013.11,167V292.57h-11.46V167Zm-65,68.92L979,292.57H965.74l-30.6-56.67ZM892.7,292.57V167h40.54q13.37,0,22.32,4.84a31.78,31.78,0,0,1,13.55,13.31,43.25,43.25,0,0,1,0,38.82,31.66,31.66,0,0,1-13.49,13.12q-9,4.73-22.2,4.72H898.9V231.3h34.22q9.81,0,16.31-3.25a21.43,21.43,0,0,0,9.75-9.26,29.4,29.4,0,0,0,3.25-14.22,30.17,30.17,0,0,0-3.25-14.35,22.26,22.26,0,0,0-9.81-9.57q-6.51-3.37-16.44-3.37H904.17V292.57Zm-45-62.19q0-15.19-4.92-25.57T829.43,189a36.65,36.65,0,0,0-38.33,0q-8.43,5.34-13.36,15.79t-4.86,25.57q0,15.18,4.86,25.62a37,37,0,0,0,13.36,15.8,37.06,37.06,0,0,0,38.33,0A36.39,36.39,0,0,0,842.79,256Q847.71,245.56,847.71,230.38Zm18.58,0q0,19.92-7.29,34.25a53.38,53.38,0,0,1-20,22,57.91,57.91,0,0,1-57.57,0,53.58,53.58,0,0,1-19.92-22q-7.29-14.34-7.29-34.19t7.29-34.2a53.16,53.16,0,0,1,19.92-22,57.52,57.52,0,0,1,57.57,0,52.89,52.89,0,0,1,20,22Q866.29,210.46,866.29,230.38Zm-220.23-46V168.18h96.26v16.16H703.51V292.57H684.8V184.34Zm-30.51,46q0-15.19-4.92-25.57T597.27,189A36.63,36.63,0,0,0,559,189q-8.44,5.34-13.36,15.79t-4.86,25.57q0,15.18,4.86,25.62A36.93,36.93,0,0,0,559,271.8a37,37,0,0,0,38.32,0A36.39,36.39,0,0,0,610.63,256Q615.55,245.56,615.55,230.38Zm18.59,0q0,19.92-7.29,34.25a53.52,53.52,0,0,1-20,22,57.93,57.93,0,0,1-57.58,0,53.58,53.58,0,0,1-19.92-22q-7.29-14.34-7.29-34.19t7.29-34.2a53.16,53.16,0,0,1,19.92-22,57.54,57.54,0,0,1,57.58,0,53,53,0,0,1,20,22Q634.14,210.46,634.14,230.38ZM434.4,292.57V168.18h18.77V276.41h56.36v16.16Z" transform="translate(-19.17 -66.75)"/><path class="cls-1" d="M1173.84,180l51,114.57,9.1-4-51-114.57Zm-34.46,114.32,43.67-114.57-9.31-3.55-43.67,114.57Zm39-116.34,4.55-2-4.91-11-4.29,11.28Z" transform="translate(-19.17 -66.75)"/><path class="cls-2" d="M1215.05,355.6h4.58a4.11,4.11,0,0,0,3-1,3.71,3.71,0,0,0,1-2.81,3.61,3.61,0,0,0-1-2.72,4.11,4.11,0,0,0-3-1h-4.58Zm8.08,16.67-6.31-11.44h-1.77v11.44h-7.38V342h12.39a13.58,13.58,0,0,1,6.09,1.25,8.61,8.61,0,0,1,3.8,3.46,9.5,9.5,0,0,1,1.25,4.83,9,9,0,0,1-1.73,5.4,9.12,9.12,0,0,1-5,3.37l7,12Zm-39-11-3.75-11.1-3.72,11.1Zm1.9,5.69h-11.31l-1.81,5.36h-7.73l11-30.31h8.54l11,30.31h-7.81Zm-32.83-25v30.31h-7.38V359.79h-11.48v12.48H1127V342h7.39v11.87h11.48V342ZM1113,372.27h-7.38l-12.35-18.7v18.7h-7.38V342h7.38l12.35,18.78V342H1113Zm-50.61-11-3.76-11.1-3.71,11.1Zm1.9,5.69H1053l-1.82,5.36h-7.72l11-30.31H1063l11,30.31h-7.82ZM1024,351.55a5.41,5.41,0,0,0-2.37-2.29,8.18,8.18,0,0,0-9.33,1.55,8.85,8.85,0,0,0-2.16,6.26,9.15,9.15,0,0,0,2.25,6.56,8.34,8.34,0,0,0,6.26,2.33,7.43,7.43,0,0,0,4.57-1.38,7.77,7.77,0,0,0,2.77-4h-9.37v-5.44h16.06V362a14.24,14.24,0,0,1-2.81,5.13,14.4,14.4,0,0,1-5,3.85,15.55,15.55,0,0,1-6.82,1.46,16.34,16.34,0,0,1-8-1.94,14.38,14.38,0,0,1-5.49-5.48,17.42,17.42,0,0,1,0-16,14,14,0,0,1,5.49-5.48,15.9,15.9,0,0,1,8-2,15.41,15.41,0,0,1,9.16,2.63,12.44,12.44,0,0,1,5,7.3Zm-59.73,15H974v5.7H956.92V342h7.38ZM942.94,342v30.31h-7.38V342Zm-50.16,15.11a16.16,16.16,0,0,1,2-8,13.73,13.73,0,0,1,5.39-5.48,15.79,15.79,0,0,1,7.9-2,15.07,15.07,0,0,1,9.24,2.85,13.65,13.65,0,0,1,5.14,7.77h-8.12a6.49,6.49,0,0,0-2.59-2.9,7.61,7.61,0,0,0-9.28,1.39,10.6,10.6,0,0,0,0,12.69,7.62,7.62,0,0,0,9.28,1.38,6.46,6.46,0,0,0,2.59-2.89h8.12a13.68,13.68,0,0,1-5.14,7.77,15.23,15.23,0,0,1-9.24,2.8,16,16,0,0,1-7.9-1.94,14.06,14.06,0,0,1-5.39-5.48A16.14,16.14,0,0,1,892.78,357.07Zm-20.95-21.2-10.4,4.36v-5.09l10.4-5Zm-1.29,25.35-3.76-11.1-3.71,11.1Zm1.9,5.69H861.13l-1.82,5.36h-7.72l11-30.31h8.55l11,30.31h-7.81Zm-31.38-25v5.92H828.71v6.39H838V360h-9.24v12.26h-7.38V342Zm-61.74,30.61a15.56,15.56,0,0,1-6-1.08,9.8,9.8,0,0,1-4.23-3.19,8.74,8.74,0,0,1-1.64-5.1h7.85a3.93,3.93,0,0,0,1.17,2.59,3.77,3.77,0,0,0,2.59.87,4.13,4.13,0,0,0,2.59-.74,2.59,2.59,0,0,0,.95-2.11,2.45,2.45,0,0,0-.78-1.86,5.88,5.88,0,0,0-1.85-1.21,27,27,0,0,0-3.11-1.08,33.58,33.58,0,0,1-4.79-1.81,8.9,8.9,0,0,1-3.2-2.68,7.47,7.47,0,0,1-1.34-4.62,7.86,7.86,0,0,1,3.07-6.6,12.5,12.5,0,0,1,8-2.42A12.7,12.7,0,0,1,786.7,344,8.54,8.54,0,0,1,790,350.6h-8a3.06,3.06,0,0,0-1.08-2.29,3.71,3.71,0,0,0-2.54-.87,3.09,3.09,0,0,0-2.16.74,2.48,2.48,0,0,0-.82,2,2.55,2.55,0,0,0,1.38,2.29,23.51,23.51,0,0,0,4.32,1.77,38.7,38.7,0,0,1,4.74,1.89,9.09,9.09,0,0,1,3.2,2.64,7,7,0,0,1,1.34,4.44A8.65,8.65,0,0,1,789,368a9.09,9.09,0,0,1-3.8,3.37A13.13,13.13,0,0,1,779.32,372.57Zm-25-30.61v30.31H747V342Zm-30.89,19.26-3.75-11.1L716,361.22Zm1.9,5.69H714.07l-1.81,5.36h-7.73l11-30.31h8.55l11,30.31H727.2Zm-32.8-25v30.31h-7.39V354.09l-6.78,18.18h-5.95l-6.82-18.22v18.22h-7.39V342H667l8.51,21,8.42-21Zm-70-6.09-10.41,4.36v-5.09l10.41-5Zm-6.74,12V354h9.89v5.69h-9.89v6.65H627v5.92H608.48V342H627v5.92Zm-49.77,0V354H576v5.69h-9.88v6.65h11.18v5.92H558.71V342h18.56v5.92Zm-36.51,18a8.87,8.87,0,0,0,6.52-2.29,8.64,8.64,0,0,0,2.33-6.48,8.1,8.1,0,0,0-8.85-8.85h-3.49v17.62Zm.48-23.92a17.55,17.55,0,0,1,8.37,1.9,13.39,13.39,0,0,1,5.53,5.35,15.48,15.48,0,0,1,2,7.9,15.65,15.65,0,0,1-2,7.91,13.32,13.32,0,0,1-5.57,5.35,17.62,17.62,0,0,1-8.33,1.9H518.7V342Zm-25.34,30.31h-7.38L485,353.57v18.7h-7.38V342H485l12.35,18.78V342h7.38Zm-55.35-6.43a7.37,7.37,0,0,0,5.78-2.42,9.11,9.11,0,0,0,2.2-6.39,9,9,0,0,0-2.2-6.39,7.37,7.37,0,0,0-5.78-2.42,7.58,7.58,0,0,0-5.87,2.38,9.18,9.18,0,0,0-2.16,6.43,9.3,9.3,0,0,0,2.16,6.43A7.62,7.62,0,0,0,449.37,365.84Zm0,6.73a15.89,15.89,0,0,1-7.86-2,15.14,15.14,0,0,1-5.66-5.52,15.77,15.77,0,0,1-2.07-8,15.52,15.52,0,0,1,2.07-8,15.14,15.14,0,0,1,5.66-5.52,15.89,15.89,0,0,1,7.86-2,15.62,15.62,0,0,1,7.81,2,14.31,14.31,0,0,1,5.61,5.52,15.43,15.43,0,0,1,2.08,8,15.68,15.68,0,0,1-2.08,8,14.72,14.72,0,0,1-5.61,5.52A15.62,15.62,0,0,1,449.37,372.57Z" transform="translate(-19.17 -66.75)"/></svg>