<?xml version="1.0" encoding="utf-8"?>
<!-- Generator: Adobe Illustrator 24.0.1, SVG Export Plug-In . SVG Version: 6.00 Build 0)  -->
<svg version="1.1" id="Camada_1" xmlns="http://www.w3.org/2000/svg" xmlns:xlink="http://www.w3.org/1999/xlink" x="0px" y="0px"
	 viewBox="0 0 1214.8 338.7" style="enable-background:new 0 0 1214.8 338.7;" xml:space="preserve">
<style type="text/css">
	.st0{fill:#FFFFFF;}
</style>
<title>logo</title>
<polygon class="st0" points="188.1,29.8 184.9,33 183.2,34.6 177.5,28.2 170.2,20.1 160.4,9.7 145.7,2.4 133.4,0 116.3,2.4 
	103.2,7.2 95.1,15.3 87.7,28.2 86.1,36.2 86.1,45.9 89.3,58.8 107.3,84.5 121.2,99 140.8,116.7 154.6,130.4 166.9,140.8 
	178.3,150.5 186.5,157.7 193,152.1 208.5,138.4 223.2,125.6 235.5,112.7 248.5,99.8 260,86.9 270.6,72.4 277.9,61.2 282,48.3 
	282,38.6 282,29.8 275.5,18.5 269,12.1 260,4.8 251.8,0 245.3,0 235.5,0 227.3,0 218.3,3.2 208.5,9.7 201.2,16.1 193.8,23.3 "/>
<polygon class="st0" points="181.1,309.2 184.4,306 186.1,304.5 191.8,310.8 199.1,318.8 208.9,329.1 223.6,336.3 235.9,338.6 
	253,336.2 266.1,331.5 274.2,323.5 281.6,310.8 283.2,302.8 283.2,293.3 279.9,280.5 261.9,255.1 248.1,240.8 228.4,223.3 
	214.6,209.8 202.3,199.4 190.9,189.9 182.7,182.8 176.2,188.3 160.7,201.9 146,214.6 133.7,227.3 120.7,240.1 109.3,252.8 
	98.7,267.1 91.3,278.3 87.3,291 87.3,300.5 87.3,309.3 93.8,320.4 100.3,326.8 109.3,333.9 117.5,338.7 124,338.7 133.8,338.7 
	142,338.7 151,335.5 160.8,329.1 168.1,322.8 175.4,315.6 "/>
<polygon class="st0" points="336.2,168.4 332.9,165.3 331.2,163.8 337.6,158.1 345.7,150.8 356.1,141 363.1,126.5 365.3,114.6 
	362.5,97.9 357.4,85.3 349,77.5 335.8,70.6 327.6,69.2 317.8,69.4 304.8,72.8 279.1,90.8 264.7,104.6 247.1,124.1 233.5,137.9 
	223.1,150 213.6,161.3 206.4,169.4 212.3,175.7 226.4,190.5 239.8,204.6 253.1,216.3 266.5,228.7 279.7,239.6 294.6,249.6 
	306.2,256.6 319.4,260.3 329.2,260.1 338.1,259.9 349.4,253.3 355.8,246.8 363,237.9 367.7,229.9 367.6,223.5 367.4,214 367.2,206 
	363.8,197.3 357.1,187.9 350.4,180.9 342.9,173.9 "/>
<polygon class="st0" points="30.8,168.3 34.1,171.4 35.7,173 29.2,178.6 21.1,185.9 10.6,195.5 3.4,209.9 1,221.8 3.7,238.5 
	8.7,251.2 16.9,259.1 30,266.1 38.2,267.6 48,267.6 61,264.3 87,246.5 101.6,232.9 119.4,213.6 133.1,200 143.6,188 153.3,176.8 
	160.6,168.8 154.8,162.4 140.8,147.4 127.6,133.2 114.4,121.4 101.3,108.8 88.1,97.8 73.3,87.6 61.8,80.5 48.7,76.6 38.9,76.7 
	29.9,76.8 18.6,83.3 12.1,89.7 4.8,98.5 0,106.5 0.1,112.8 0.1,122.4 0.2,130.4 3.6,139.1 10.2,148.6 16.8,155.7 24.2,162.8 "/>
<path class="st0" d="M1027.3,225.8V100.3h72.7v10.3h-61.2v47.3h55.5v10.3h-55.5v57.7L1027.3,225.8z M993.9,100.3v125.6h-11.5V100.3
	H993.9z M928.9,169.2l30.9,56.7h-13.3L916,169.2L928.9,169.2z M873.5,225.8V100.3h40.5c8.9,0,16.4,1.6,22.3,4.8
	c5.8,3,10.5,7.6,13.5,13.3c6.1,12.2,6.1,26.6,0,38.8c-3.1,5.6-7.8,10.2-13.5,13.1c-6,3.2-13.4,4.7-22.2,4.7h-34.5v-10.5H914
	c6.5,0,12-1.1,16.3-3.3c4.2-2,7.6-5.2,9.8-9.3c2.3-4.4,3.4-9.3,3.3-14.2c0.1-5-1-9.9-3.3-14.4c-2.2-4.1-5.6-7.5-9.8-9.6
	c-4.3-2.2-9.8-3.4-16.4-3.4H885v115.3H873.5z M828.5,163.6c0-10.1-1.6-18.7-4.9-25.6s-7.7-12.2-13.4-15.8c-11.8-7.2-26.6-7.2-38.3,0
	c-5.6,3.6-10.1,8.8-13.4,15.8c-3.3,7-4.9,15.5-4.9,25.6c0,10.1,1.6,18.7,4.9,25.6c2.9,6.4,7.5,11.9,13.4,15.8
	c11.8,7.1,26.5,7.1,38.3,0c5.9-3.9,10.5-9.3,13.4-15.8C826.9,182.3,828.5,173.8,828.5,163.6L828.5,163.6z M847.1,163.6
	c0,13.3-2.4,24.7-7.3,34.3c-4.4,9.1-11.4,16.7-20,22c-17.8,10.2-39.7,10.2-57.6,0c-8.6-5.3-15.5-12.9-19.9-22
	c-4.9-9.6-7.3-21-7.3-34.2c0-13.2,2.4-24.6,7.3-34.2c4.4-9.1,11.3-16.7,19.9-22c17.8-10.3,39.8-10.3,57.6,0c8.6,5.3,15.6,12.9,20,22
	C844.7,139,847.1,150.4,847.1,163.6L847.1,163.6z M626.9,117.6v-16.2h96.3v16.2h-38.8v108.2h-18.7V117.6L626.9,117.6z M596.4,163.6
	c0-10.1-1.6-18.7-4.9-25.6c-3.3-6.9-7.7-12.2-13.4-15.8c-11.7-7.2-26.5-7.2-38.3,0c-5.6,3.6-10.1,8.8-13.4,15.8
	c-3.3,7-4.9,15.5-4.9,25.6c0,10.1,1.6,18.7,4.9,25.6c2.9,6.4,7.5,11.9,13.4,15.8c11.8,7.1,26.5,7.1,38.3,0
	c5.9-3.9,10.5-9.4,13.3-15.8C594.7,182.3,596.4,173.8,596.4,163.6L596.4,163.6z M615,163.6c0,13.3-2.4,24.7-7.3,34.3
	c-4.5,9.1-11.4,16.7-20,22c-17.8,10.2-39.7,10.2-57.6,0c-8.6-5.3-15.5-12.9-19.9-22c-4.9-9.6-7.3-21-7.3-34.2s2.4-24.6,7.3-34.2
	c4.4-9.1,11.3-16.7,19.9-22c17.8-10.3,39.8-10.3,57.6,0c8.6,5.3,15.6,12.9,20,22C612.5,139,615,150.4,615,163.6L615,163.6z
	 M415.2,225.8V101.4H434v108.2h56.4v16.2H415.2z"/>
<path class="st0" d="M1154.7,113.3l51,114.6l9.1-4l-51-114.6L1154.7,113.3z M1120.2,227.6l43.7-114.6l-9.3-3.6L1110.9,224
	L1120.2,227.6z M1159.2,111.2l4.6-2l-4.9-11l-4.3,11.3L1159.2,111.2z"/>
<path class="st0" d="M1195.9,288.9h4.6c1.1,0.1,2.2-0.3,3-1c0.7-0.8,1.1-1.8,1-2.8c0.1-1-0.3-2-1-2.7c-0.8-0.7-1.9-1.1-3-1h-4.6
	V288.9z M1204,305.5l-6.3-11.4h-1.8v11.4h-7.4v-30.3h12.4c2.1-0.1,4.2,0.4,6.1,1.3c1.6,0.7,2.9,1.9,3.8,3.5c0.8,1.5,1.3,3.1,1.3,4.8
	c0,1.9-0.6,3.8-1.7,5.4c-1.2,1.7-3,2.8-5,3.4l7,12L1204,305.5z M1165,294.5l-3.8-11.1l-3.7,11.1H1165z M1166.9,300.2h-11.3l-1.8,5.4
	h-7.7l11-30.3h8.5l11,30.3h-7.8L1166.9,300.2z M1134,275.2v30.3h-7.4V293h-11.5v12.5h-7.3v-30.3h7.4v11.9h11.5v-11.9L1134,275.2z
	 M1093.8,305.5h-7.4l-12.3-18.7v18.7h-7.4v-30.3h7.4l12.3,18.8v-18.8h7.4V305.5z M1043.2,294.5l-3.8-11.1l-3.7,11.1H1043.2z
	 M1045.1,300.2h-11.3l-1.8,5.4h-7.7l11-30.3h8.5l11,30.3h-7.8L1045.1,300.2z M1004.8,284.8c-0.5-1-1.4-1.8-2.4-2.3
	c-3.1-1.5-6.9-0.9-9.3,1.5c-1.5,1.7-2.3,4-2.2,6.3c-0.1,2.4,0.7,4.8,2.3,6.6c1.7,1.6,3.9,2.5,6.3,2.3c1.6,0.1,3.2-0.4,4.6-1.4
	c1.3-1,2.3-2.4,2.8-4h-9.4v-5.4h16.1v6.9c-0.6,1.9-1.5,3.6-2.8,5.1c-1.4,1.6-3.1,3-5,3.9c-2.1,1-4.5,1.5-6.8,1.5
	c-2.8,0-5.5-0.6-8-1.9c-2.3-1.3-4.2-3.2-5.5-5.5c-2.6-5-2.6-11,0-16c1.3-2.3,3.2-4.2,5.5-5.5c2.4-1.4,5.2-2,8-2
	c3.3-0.1,6.5,0.8,9.2,2.6c2.5,1.7,4.3,4.3,5,7.3L1004.8,284.8z M945.1,299.8h9.7v5.7h-17.1v-30.3h7.4L945.1,299.8z M923.8,275.3
	v30.3h-7.4v-30.3H923.8z M873.6,290.4c0-2.8,0.7-5.6,2-8c1.2-2.3,3.1-4.2,5.4-5.5c2.4-1.3,5.1-2,7.9-2c3.3-0.1,6.6,0.9,9.2,2.9
	c2.6,1.9,4.4,4.7,5.1,7.8h-8.1c-0.5-1.2-1.5-2.2-2.6-2.9c-3-1.7-6.9-1.2-9.3,1.4c-2.8,3.8-2.8,8.9,0,12.7c2.4,2.5,6.2,3.1,9.3,1.4
	c1.1-0.7,2-1.7,2.6-2.9h8.1c-0.8,3.1-2.6,5.9-5.1,7.8c-2.7,1.9-5.9,2.9-9.2,2.8c-2.8,0-5.5-0.6-7.9-1.9c-2.3-1.3-4.1-3.2-5.4-5.5
	C874.3,295.9,873.6,293.1,873.6,290.4L873.6,290.4z M852.7,269.2l-10.4,4.4v-5.1l10.4-5V269.2z M851.4,294.5l-3.8-11.1l-3.7,11.1
	H851.4z M853.3,300.2H842l-1.8,5.4h-7.7l11-30.3h8.5l11,30.3h-7.8L853.3,300.2z M821.9,275.2v5.9h-12.4v6.4h9.3v5.7h-9.2v12.3h-7.4
	v-30.3L821.9,275.2z M760.2,305.8c-2.1,0-4.1-0.3-6-1.1c-1.7-0.7-3.1-1.8-4.2-3.2c-1.1-1.5-1.6-3.3-1.6-5.1h7.8
	c0.1,1,0.5,1.9,1.2,2.6c0.7,0.6,1.6,0.9,2.6,0.9c0.9,0,1.8-0.2,2.6-0.7c0.6-0.5,1-1.3,1-2.1c0-0.7-0.3-1.4-0.8-1.9
	c-0.5-0.5-1.2-0.9-1.8-1.2c-1-0.4-2.1-0.8-3.1-1.1c-1.6-0.5-3.2-1.1-4.8-1.8c-1.3-0.6-2.4-1.5-3.2-2.7c-0.9-1.4-1.4-3-1.3-4.6
	c-0.1-2.6,1-5,3.1-6.6c2.3-1.7,5.1-2.6,8-2.4c2.9-0.1,5.8,0.8,8.1,2.5c2,1.6,3.3,4,3.3,6.6h-8c0-0.9-0.4-1.7-1.1-2.3
	c-0.7-0.6-1.6-0.9-2.5-0.9c-0.8,0-1.6,0.2-2.2,0.7c-0.6,0.5-0.9,1.2-0.8,2c0,1,0.5,1.8,1.4,2.3c1.4,0.7,2.8,1.3,4.3,1.8
	c1.6,0.5,3.2,1.2,4.7,1.9c1.3,0.6,2.4,1.5,3.2,2.6c0.9,1.3,1.4,2.9,1.3,4.4c0,1.7-0.5,3.4-1.4,4.8c-0.9,1.5-2.2,2.6-3.8,3.4
	C764.2,305.5,762.2,305.9,760.2,305.8L760.2,305.8z M735.2,275.2v30.3h-7.3v-30.3L735.2,275.2z M704.3,294.5l-3.8-11.1l-3.7,11.1
	L704.3,294.5z M706.2,300.2h-11.3l-1.8,5.4h-7.7l11-30.3h8.5l11,30.3H708L706.2,300.2z M673.4,275.2v30.3H666v-18.1l-6.8,18.2h-6
	l-6.8-18.2v18.2H639v-30.3h8.8l8.5,21l8.4-21L673.4,275.2z M603.4,269.1l-10.4,4.4v-5.1l10.4-5V269.1z M596.6,281.1v6.2h9.9v5.7
	h-9.9v6.6h11.2v5.9h-18.5v-30.3h18.5v5.9L596.6,281.1z M546.9,281.1v6.2h10v5.7H547v6.6h11.2v5.9h-18.6v-30.3h18.6v5.9L546.9,281.1z
	 M510.3,299.1c2.4,0.1,4.7-0.7,6.5-2.3c1.6-1.7,2.5-4.1,2.3-6.5c0.4-4.5-2.8-8.4-7.3-8.9c-0.5-0.1-1.1-0.1-1.6,0h-3.5v17.6
	L510.3,299.1z M510.8,275.1c2.9-0.1,5.8,0.6,8.4,1.9c2.3,1.2,4.2,3.1,5.5,5.4c1.4,2.4,2.1,5.1,2,7.9c0,2.8-0.6,5.5-2,7.9
	c-1.3,2.3-3.2,4.2-5.6,5.4c-2.6,1.3-5.4,2-8.3,1.9h-11.3v-30.2L510.8,275.1z M485.5,305.5h-7.4l-12.3-18.6v18.7h-7.4v-30.3h7.4
	l12.4,18.8v-18.8h7.4L485.5,305.5z M430.1,299c2.2,0.1,4.3-0.8,5.8-2.4c1.5-1.8,2.3-4.1,2.2-6.4c0.1-2.3-0.7-4.6-2.2-6.4
	c-1.5-1.6-3.6-2.5-5.8-2.4c-2.2-0.1-4.4,0.8-5.9,2.4c-1.5,1.8-2.3,4.1-2.2,6.4c-0.1,2.3,0.7,4.6,2.2,6.4
	C425.8,298.3,428,299.2,430.1,299L430.1,299z M430.1,305.8c-2.7,0-5.5-0.7-7.9-2c-2.3-1.3-4.3-3.2-5.7-5.5c-1.4-2.4-2.1-5.2-2.1-8
	c0-2.8,0.7-5.6,2.1-8c1.4-2.3,3.3-4.2,5.7-5.5c2.4-1.3,5.1-2,7.9-2c2.7,0,5.4,0.7,7.8,2c2.3,1.3,4.3,3.2,5.6,5.5
	c1.4,2.4,2.1,5.2,2.1,8c0,2.8-0.7,5.6-2.1,8c-1.3,2.3-3.3,4.2-5.6,5.5C435.6,305.1,432.9,305.8,430.1,305.8L430.1,305.8z"/>
</svg>
